<svg width="46" height="46" viewBox="0 0 46 46" fill="none" xmlns="http://www.w3.org/2000/svg">
<circle cx="6.99112" cy="26.4581" r="1.39737" transform="rotate(-90 6.99112 26.4581)" fill="white" fill-opacity="0.44"/>
<circle cx="19.2885" cy="26.4581" r="1.39737" transform="rotate(-90 19.2885 26.4581)" fill="white" fill-opacity="0.44"/>
<circle cx="31.5849" cy="26.4581" r="1.39737" transform="rotate(-90 31.5849 26.4581)" fill="white" fill-opacity="0.44"/>
<circle cx="43.7211" cy="26.4581" r="1.39737" transform="rotate(-90 43.7211 26.4581)" fill="white" fill-opacity="0.44"/>
<circle cx="6.99112" cy="14.1612" r="1.39737" transform="rotate(-90 6.99112 14.1612)" fill="white" fill-opacity="0.44"/>
<circle cx="19.2885" cy="14.1612" r="1.39737" transform="rotate(-90 19.2885 14.1612)" fill="white" fill-opacity="0.44"/>
<circle cx="31.5849" cy="14.1612" r="1.39737" transform="rotate(-90 31.5849 14.1612)" fill="white" fill-opacity="0.44"/>
<circle cx="43.7211" cy="14.1612" r="1.39737" transform="rotate(-90 43.7211 14.1612)" fill="white" fill-opacity="0.44"/>
<circle cx="6.99112" cy="38.4757" r="1.39737" transform="rotate(-90 6.99112 38.4757)" fill="white" fill-opacity="0.44"/>
<circle cx="6.99112" cy="1.86434" r="1.39737" transform="rotate(-90 6.99112 1.86434)" fill="white" fill-opacity="0.44"/>
<circle cx="19.2885" cy="38.4757" r="1.39737" transform="rotate(-90 19.2885 38.4757)" fill="white" fill-opacity="0.44"/>
<circle cx="19.2885" cy="1.86434" r="1.39737" transform="rotate(-90 19.2885 1.86434)" fill="white" fill-opacity="0.44"/>
<circle cx="31.5849" cy="38.4757" r="1.39737" transform="rotate(-90 31.5849 38.4757)" fill="white" fill-opacity="0.44"/>
<circle cx="43.7211" cy="38.4757" r="1.39737" transform="rotate(-90 43.7211 38.4757)" fill="white" fill-opacity="0.44"/>
<circle cx="31.5849" cy="1.86434" r="1.39737" transform="rotate(-90 31.5849 1.86434)" fill="white" fill-opacity="0.44"/>
<circle cx="43.7211" cy="1.86434" r="1.39737" transform="rotate(-90 43.7211 1.86434)" fill="white" fill-opacity="0.44"/>
</svg>
